<svg xmlns="http://www.w3.org/2000/svg" width="22.384" height="18.4" viewBox="0 0 32.384 32.4">
  <path id="Path_90012" data-name="Path 90012" d="M38.852,9A4.887,4.887,0,0,0,34,13.868V18.72a4.883,4.883,0,0,0,4.852,4.865H43.7a4.9,4.9,0,0,0,4.872-4.865V13.868A4.9,4.9,0,0,0,43.7,9ZM56.664,9a4.887,4.887,0,0,0-4.852,4.868V18.72a4.883,4.883,0,0,0,4.852,4.865h4.868a4.883,4.883,0,0,0,4.852-4.865V13.868A4.887,4.887,0,0,0,61.532,9ZM38.852,26.827A4.872,4.872,0,0,0,34,31.679v4.855A4.883,4.883,0,0,0,38.852,41.4H43.7a4.9,4.9,0,0,0,4.872-4.865V31.679a4.887,4.887,0,0,0-4.868-4.852Zm17.811,0a4.872,4.872,0,0,0-4.852,4.852v4.855A4.883,4.883,0,0,0,56.664,41.4h4.868a4.883,4.883,0,0,0,4.852-4.865V31.679a4.872,4.872,0,0,0-4.852-4.852Z" transform="translate(-34 -9)" fill="#22c27e"/>
</svg>
